<svg width="242" height="242" viewBox="0 0 242 242" fill="none" xmlns="http://www.w3.org/2000/svg">
<path d="M114.544 32.4056L111.349 32.4059L108.154 32.406L95.3748 32.4059L82.5955 32.4059L69.8162 32.4059L18.7079 120.928L18.7071 120.929L69.8162 209.451L82.5955 209.451L95.3748 209.451L108.154 209.451L111.349 209.451L114.544 209.451L117.738 204.822L120.933 204.822L124.128 204.822L127.323 209.451L130.518 209.451L133.713 209.451L146.492 209.451L159.271 209.451L172.051 209.451L223.159 120.929L223.159 120.928L172.05 32.4056L159.271 32.4056L146.492 32.4056L133.713 32.4056L130.518 32.4056L127.323 32.4056L124.128 37.0346L120.933 37.0346L117.738 37.0346L114.544 32.4056ZM74.5379 39.5383L86.2124 39.5383L97.8865 39.5383L109.561 39.5383L112.479 39.5383L115.398 39.5383L118.316 44.1673L121.235 44.1673L124.154 44.1673L127.072 39.5383L129.991 39.5383L132.909 39.5383L144.584 39.5383L156.258 39.5383L167.933 39.5383L199.162 93.6302L201.255 93.6302L217.299 120.909L202.119 146.717L200.034 146.717L167.933 202.318L156.258 202.318L144.584 202.318L132.909 202.318L129.991 202.318L127.072 202.318L124.154 197.689L121.235 197.689L118.316 197.689L115.398 202.318L112.479 202.318L109.561 202.318L97.8865 202.318L86.2124 202.318L74.5379 202.318L42.4364 146.717L40.4975 146.717L25.3182 120.909L41.362 93.6302L43.3082 93.6302L74.5379 39.5383Z" fill="black"/>
<path d="M104.847 93.1747L88.7603 121.038L104.847 148.9H137.02L153.106 121.038L137.02 93.1747H104.847ZM108.15 98.1643H134.14L147.134 120.671L134.14 143.179H108.15L95.1559 120.671L108.15 98.1643Z" fill="black"/>
<path d="M80.9281 120.959L53.0878 121.072C53.0892 121.115 53.0903 121.158 53.0911 121.201C53.0861 121.294 53.0795 121.388 53.0713 121.481C53.0039 123.316 52.3083 125.073 51.101 126.457C49.8936 127.841 48.2476 128.769 46.4382 129.085L77.1657 181.712C77.9168 180.801 78.8595 180.068 79.9267 179.564C80.9939 179.06 82.1592 178.797 83.3395 178.796C84.6853 178.799 86.0086 179.141 87.1875 179.79L100.985 155.659L80.8266 121.134L80.9281 120.959Z" fill="black"/>
<path d="M141.149 155.47L141.105 155.546L101.034 155.742L100.985 155.659L87.1876 179.79C87.2416 179.816 87.2953 179.842 87.3487 179.869C87.374 179.886 87.3991 179.903 87.4242 179.921C89.0217 180.868 90.2416 182.341 90.8741 184.088C91.5067 185.834 91.5134 187.745 90.8931 189.496L151.873 189.201C151.205 187.454 151.168 185.53 151.769 183.76C152.37 181.99 153.571 180.485 155.163 179.506L141.149 155.47Z" fill="black"/>
<path d="M188.775 120.518L160.904 120.632L160.971 120.746L141.149 155.47L155.163 179.506C155.222 179.465 155.282 179.424 155.343 179.384C155.37 179.371 155.397 179.358 155.425 179.345L155.423 179.345C156.641 178.66 158.016 178.305 159.412 178.316C160.54 178.328 161.652 178.577 162.676 179.048C163.7 179.519 164.614 180.2 165.357 181.048L195.407 128.413C193.551 128.088 191.869 127.119 190.657 125.678C189.444 124.236 188.778 122.414 188.774 120.53C188.774 120.526 188.775 120.522 188.775 120.518Z" fill="black"/>
<path d="M164.669 60.2305C163.458 61.6682 161.78 62.6347 159.929 62.9612C158.077 63.2876 156.17 62.9531 154.54 62.0162C154.539 62.0157 154.538 62.0153 154.537 62.0148L140.741 86.1396H140.767L160.904 120.632L188.775 120.518C188.779 120.429 188.785 120.339 188.793 120.25C188.861 118.439 189.541 116.705 190.72 115.329C191.9 113.954 193.511 113.018 195.29 112.675L164.669 60.2305Z" fill="black"/>
<path d="M151.016 52.3813L90.2179 52.6762C90.8427 54.4217 90.8433 56.3298 90.2197 58.0757C89.596 59.8216 88.3867 61.2975 86.7974 62.2521L100.837 86.3319L140.741 86.1378L154.537 62.014C154.46 61.9637 154.383 61.9121 154.307 61.8591C152.762 60.8892 151.594 59.4216 150.996 57.6985C150.398 55.9755 150.405 54.0999 151.016 52.3813Z" fill="black"/>
<path d="M76.5881 60.5745L64.3641 81.9883C64.4947 81.9753 64.6257 81.9659 64.7568 81.96C66.0766 81.9604 67.3709 82.3245 68.4973 83.0123C69.6238 83.7002 70.5389 84.6851 71.1422 85.859L84.049 63.2495C82.6802 63.4883 81.2728 63.3672 79.9649 62.8983C78.657 62.4293 77.4933 61.6286 76.5881 60.5745Z" fill="black"/>
<path d="M64.7568 96.3236C68.7232 96.3236 71.9386 93.1082 71.9386 89.1419C71.9386 85.1755 68.7232 81.9601 64.7568 81.9601C60.7904 81.9601 57.575 85.1755 57.575 89.1419C57.575 93.1082 60.7904 96.3236 64.7568 96.3236Z" fill="black"/>
<path d="M45.0728 113.182C42.963 113.184 40.9388 114.017 39.4391 115.501C37.9394 116.985 37.0849 119 37.0609 121.109C37.0585 121.14 37.057 121.17 37.0549 121.201C37.0549 122.254 37.2623 123.296 37.6653 124.269C38.0682 125.242 38.6589 126.126 39.4035 126.871C40.1481 127.615 41.032 128.206 42.0049 128.609C42.9777 129.012 44.0204 129.219 45.0734 129.219C47.1488 129.215 49.1418 128.406 50.6333 126.963C52.1248 125.52 52.9987 123.555 53.0712 121.481C53.0795 121.388 53.0862 121.294 53.0912 121.201C53.0912 120.148 52.8838 119.105 52.4808 118.132C52.0779 117.159 51.4872 116.275 50.7426 115.531C49.998 114.786 49.1141 114.195 48.1412 113.793C47.1684 113.39 46.1258 113.182 45.0728 113.182ZM45.0735 118.086C45.4825 118.086 45.8875 118.166 46.2654 118.323C46.6432 118.479 46.9866 118.709 47.2758 118.998C47.5649 119.287 47.7943 119.631 47.9508 120.009C48.1072 120.387 48.1877 120.792 48.1877 121.201C48.183 121.256 48.1768 121.312 48.1691 121.367C48.1264 122.161 47.782 122.908 47.2065 123.456C46.631 124.003 45.868 124.31 45.0735 124.314C44.2518 124.314 43.4636 123.989 42.8805 123.41C42.2975 122.83 41.9669 122.045 41.9608 121.223C41.96 121.215 41.9593 121.208 41.9585 121.201C41.9584 120.792 42.039 120.386 42.1955 120.009C42.352 119.631 42.5814 119.287 42.8707 118.998C43.1599 118.709 43.5034 118.479 43.8813 118.323C44.2593 118.166 44.6644 118.086 45.0735 118.086Z" fill="black"/>
<path d="M83.3396 178.796C81.9321 178.796 80.5493 179.166 79.3303 179.87C78.1113 180.574 77.099 181.586 76.3952 182.805C75.3608 184.604 75.0645 186.735 75.5686 188.748C76.0726 190.761 77.3378 192.501 79.0979 193.601L81.6472 189.411C80.9816 188.977 80.5069 188.306 80.3203 187.533C80.1338 186.761 80.2494 185.947 80.6435 185.257C81.0548 184.546 81.7304 184.026 82.5232 183.811C83.316 183.595 84.1617 183.702 84.8763 184.107C84.8832 184.111 84.8901 184.114 84.897 184.117C85.6123 184.53 86.1341 185.211 86.3478 186.008C86.5614 186.806 86.4494 187.656 86.0364 188.371C85.8319 188.726 85.5597 189.036 85.2352 189.285C84.9108 189.534 84.5404 189.717 84.1454 189.823C83.7504 189.929 83.3383 189.956 82.9328 189.902C82.5273 189.849 82.1363 189.716 81.7821 189.512C81.7363 189.48 81.6913 189.445 81.6472 189.411L79.0979 193.601C79.1746 193.654 79.2522 193.707 79.3307 193.758C81.1724 194.821 83.361 195.109 85.4151 194.559C87.4693 194.008 89.2206 192.665 90.284 190.823C91.3373 188.995 91.6278 186.826 91.0926 184.785C90.5574 182.745 89.2396 180.997 87.4248 179.921C87.3997 179.904 87.3738 179.886 87.3485 179.87C86.1296 179.166 84.747 178.796 83.3396 178.796Z" fill="black"/>
<path d="M159.412 178.316C158.016 178.305 156.641 178.66 155.423 179.344L155.425 179.345C155.397 179.358 155.37 179.371 155.342 179.384C153.501 180.448 152.157 182.199 151.606 184.253C151.056 186.307 151.344 188.496 152.407 190.338C153.448 192.133 155.145 193.455 157.14 194.025C159.136 194.596 161.275 194.37 163.107 193.396C163.192 193.356 163.276 193.315 163.359 193.273C165.201 192.209 166.545 190.458 167.095 188.404C167.646 186.35 167.357 184.161 166.294 182.319C165.595 181.11 164.592 180.105 163.385 179.403C162.178 178.701 160.809 178.326 159.412 178.316ZM159.554 183.221C160.066 183.255 160.561 183.414 160.995 183.684C161.43 183.954 161.792 184.328 162.048 184.771C162.253 185.126 162.386 185.517 162.439 185.922C162.492 186.328 162.465 186.74 162.36 187.135C162.254 187.53 162.071 187.901 161.822 188.225C161.573 188.55 161.262 188.822 160.908 189.026C160.858 189.05 160.806 189.072 160.755 189.093C160.755 189.093 160.754 189.093 160.755 189.093C160.046 189.452 159.227 189.528 158.465 189.303C157.703 189.079 157.056 188.572 156.655 187.886C156.245 187.174 156.132 186.329 156.342 185.534C156.552 184.74 157.068 184.061 157.776 183.645C157.782 183.64 157.788 183.636 157.793 183.632C158.327 183.324 158.94 183.181 159.554 183.221Z" fill="black"/>
<path d="M196.793 112.512C194.718 112.516 192.725 113.324 191.233 114.767C189.741 116.21 188.867 118.175 188.795 120.25C188.787 120.343 188.779 120.436 188.774 120.53C188.774 121.583 188.981 122.625 189.384 123.598C189.787 124.571 190.378 125.455 191.123 126.2C191.867 126.944 192.751 127.535 193.724 127.938C194.697 128.341 195.74 128.548 196.793 128.548C198.902 128.547 200.926 127.714 202.426 126.23C203.926 124.746 204.78 122.731 204.804 120.622C204.807 120.591 204.809 120.56 204.812 120.53C204.811 118.403 203.967 116.364 202.463 114.86C200.959 113.357 198.92 112.512 196.793 112.512ZM196.793 117.416C197.615 117.417 198.403 117.742 198.986 118.321C199.569 118.9 199.899 119.686 199.905 120.508C199.905 120.507 199.905 120.508 199.905 120.508C199.906 120.515 199.906 120.523 199.907 120.53C199.907 120.939 199.826 121.344 199.67 121.722C199.513 122.1 199.284 122.443 198.994 122.733C198.705 123.022 198.362 123.251 197.984 123.408C197.606 123.564 197.201 123.645 196.792 123.645C196.383 123.645 195.978 123.564 195.6 123.408C195.222 123.251 194.879 123.021 194.589 122.732C194.3 122.443 194.071 122.1 193.914 121.722C193.758 121.344 193.677 120.939 193.677 120.53C193.682 120.474 193.688 120.419 193.696 120.364C193.739 119.57 194.084 118.823 194.66 118.275C195.235 117.727 195.999 117.42 196.793 117.416Z" fill="black"/>
<path d="M158.549 47.0547C157.141 47.0547 155.759 47.4252 154.54 48.1289C153.321 48.8326 152.309 49.8447 151.605 51.0636C150.571 52.8629 150.274 54.993 150.778 57.0063C151.282 59.0195 152.547 60.759 154.307 61.8589C154.384 61.9127 154.462 61.9651 154.54 62.0161C156.382 63.0794 158.571 63.3675 160.625 62.8172C162.679 62.2668 164.43 60.923 165.494 59.0813C166.547 57.2533 166.838 55.0838 166.302 53.043C165.767 51.0022 164.449 49.2547 162.634 48.1792C162.609 48.162 162.584 48.1457 162.558 48.1288C161.339 47.425 159.956 47.0545 158.549 47.0547ZM158.331 51.9679C158.943 51.9251 159.553 52.0636 160.086 52.366C160.093 52.3692 160.099 52.3724 160.106 52.3756C160.46 52.5801 160.771 52.8523 161.02 53.1768C161.269 53.5012 161.451 53.8716 161.557 54.2666C161.663 54.6616 161.69 55.0737 161.637 55.4792C161.583 55.8847 161.451 56.2757 161.246 56.6299C161.042 56.9841 160.769 57.2945 160.445 57.5435C160.12 57.7925 159.75 57.9752 159.355 58.081C158.96 58.1869 158.548 58.2139 158.143 58.1605C157.737 58.1072 157.346 57.9744 156.992 57.77C156.946 57.7378 156.901 57.7044 156.857 57.6698C156.191 57.2362 155.716 56.5645 155.53 55.7922C155.343 55.02 155.458 54.2055 155.853 53.5156C156.108 53.0746 156.467 52.7028 156.899 52.4329C157.331 52.1631 157.823 52.0034 158.331 51.9679Z" fill="black"/>
<path d="M82.7332 47.3667C81.3367 47.3565 79.9617 47.7112 78.7443 48.3956C78.7168 48.4088 78.6894 48.4229 78.6621 48.4364C76.8204 49.4998 75.4766 51.2511 74.9262 53.3053C74.3759 55.3594 74.664 57.548 75.7273 59.3897C76.7685 61.185 78.4653 62.5066 80.4609 63.0768C82.4564 63.6469 84.5953 63.4211 86.4278 62.4468C86.5128 62.4072 86.5971 62.3662 86.6806 62.3237C88.5222 61.2604 89.866 59.509 90.4164 57.4549C90.9668 55.4007 90.6786 53.2121 89.6154 51.3704C88.9162 50.1616 87.9134 49.1563 86.7063 48.454C85.4992 47.7518 84.1297 47.377 82.7332 47.3667ZM82.8756 52.2726C83.3867 52.3061 83.8817 52.4651 84.3167 52.7356C84.7516 53.0061 85.1132 53.3797 85.3693 53.8234C85.5737 54.1776 85.7065 54.5686 85.7598 54.9741C85.8132 55.3796 85.7862 55.7916 85.6803 56.1866C85.5745 56.5817 85.3918 56.952 85.1428 57.2765C84.8938 57.6009 84.5834 57.8732 84.2291 58.0776C84.1784 58.1012 84.127 58.1235 84.075 58.1443C83.3665 58.5041 82.5473 58.5794 81.7851 58.3549C81.0229 58.1305 80.3753 57.6231 79.9749 56.9368C79.5646 56.2249 79.4522 55.3797 79.6623 54.5853C79.8724 53.791 80.3879 53.1118 81.0965 52.6958C81.1024 52.6916 81.1083 52.6874 81.1142 52.6832C81.6478 52.3751 82.2608 52.2322 82.8756 52.2726Z" fill="black"/>
</svg>
